<?xml version="1.0" encoding="utf-8"?>
<svg width="1000" height="1000" viewBox="0 0 1000 1000" fill="none" version="1.1" id="svg204"
     xmlns="http://www.w3.org/2000/svg">
    <circle cx="500" cy="500" r="450" fill="#FF66AB" id="circle105"/>
    <circle cx="500" cy="500" r="450" fill="url(#paint0_linear_34_23)" fill-opacity="0.2" id="circle107"/>
    <mask id="mask0_34_23" style="mask-type:alpha" maskUnits="userSpaceOnUse" x="50" y="50" width="900" height="900">
        <circle cx="500" cy="500" r="450" fill="#FF66AB" id="circle109"/>
        <circle cx="500" cy="500" r="450" fill="url(#paint1_linear_34_23)" fill-opacity="0.2" id="circle111"/>
    </mask>
    <g mask="url(#mask0_34_23)" id="g116">
        <path fill-rule="evenodd" clip-rule="evenodd"
              d="M394.438 139.1L273.829 348.001L220.638 255.872L37.1974 573.6H121.472L-0.821655 785.418H332.083L289.75 858.74H656.631L564.127 698.518H744.632L724.25 733.822H1091.13L1047.23 657.784H1235.06L1051.62 340.056L957.704 502.72L907.69 416.094L872.586 476.896L723.028 217.853L562.888 495.222L540.721 456.828H577.878L394.438 139.1ZM749.828 698.518L732.044 729.322H1083.34L1042.03 657.784H868.178L955.106 507.22L907.69 425.094L875.184 481.396L906.468 535.581H843.9L803.707 605.197L857.587 698.518H749.828ZM801.109 609.697L849.792 694.018H752.426L801.109 609.697ZM798.511 605.197L747.23 694.018H561.529L530.014 639.434L530.395 638.775H645.768L588.082 538.859L589.974 535.581H758.319L798.511 605.197ZM801.109 600.697L838.704 535.581H763.515L801.109 600.697ZM760.917 531.081H841.302L869.988 481.396L723.028 226.853L565.486 499.722L583.591 531.081H587.376L674.146 380.791L760.917 531.081ZM592.572 531.081H755.721L674.146 389.791L592.572 531.081ZM582.886 538.859L580.993 535.581H539.587L560.29 499.722L535.525 456.828H389.131L362.895 502.269L404.078 573.6H321.713L286.682 634.275H419.346L473.191 541.012L527.036 634.275H527.797L582.886 538.859ZM532.993 634.275H637.974L585.484 543.359L532.993 634.275ZM524.818 639.434L524.437 638.775H421.944L351.669 760.494L366.059 785.418H337.279L297.544 854.24H648.837L558.931 698.518H490.706L524.818 639.434ZM556.333 694.018L527.416 643.934L498.5 694.018H556.333ZM578.395 531.081L562.888 504.222L547.382 531.081H578.395ZM846.498 531.081L872.586 485.896L898.674 531.081H846.498ZM220.638 264.872L271.23 352.501L210.997 456.828H331.464L357.699 502.269L319.114 569.1H241.167L182.619 467.69L124.07 569.1H44.9916L220.638 264.872ZM273.829 357.001L218.791 452.328H328.866L273.829 357.001ZM276.427 352.501L334.062 452.328H386.533L462.328 321.047L538.123 452.328H570.084L394.438 148.1L276.427 352.501ZM360.297 497.769L336.66 456.828H383.935L360.297 497.769ZM462.328 330.047L532.927 452.328H391.729L462.328 330.047ZM126.668 573.6L6.97257 780.918H334.681L346.473 760.494L238.569 573.6H126.668ZM235.971 569.1H129.266L182.619 476.69L235.971 569.1ZM243.765 573.6L280.141 636.604L316.516 573.6H243.765ZM360.297 506.769L324.311 569.1H396.284L360.297 506.769ZM349.071 755.994L281.394 638.775H416.747L349.071 755.994ZM349.071 764.994L339.877 780.918H358.265L349.071 764.994ZM424.542 634.275L473.191 550.012L521.839 634.275H424.542ZM957.704 511.72L875.972 653.284H1039.44L957.704 511.72ZM1044.63 653.284L960.302 507.22L1051.62 349.056L1227.26 653.284H1044.63Z"
              fill="url(#paint2_linear_34_23)" id="path114"/>
    </g>
    <defs id="defs202">
        <linearGradient id="paint0_linear_34_23" x1="500" y1="50" x2="500" y2="950" gradientUnits="userSpaceOnUse">
            <stop stop-opacity="0" id="stop187"/>
            <stop offset="1" id="stop189"/>
        </linearGradient>
        <linearGradient id="paint1_linear_34_23" x1="500" y1="50" x2="500" y2="950" gradientUnits="userSpaceOnUse">
            <stop stop-opacity="0" id="stop192"/>
            <stop offset="1" id="stop194"/>
        </linearGradient>
        <linearGradient id="paint2_linear_34_23" x1="617.118" y1="139.1" x2="617.118" y2="858.74"
                        gradientUnits="userSpaceOnUse">
            <stop stop-color="#F964A7" id="stop197"/>
            <stop offset="1" stop-color="#B6346F" id="stop199"/>
        </linearGradient>
    </defs>
    <path d="M 780.144 365 C 792.844 365 801.554 374.432 801.554 387.492 L 801.554 508.295 C 801.554 521.355 792.844 530.787 780.144 530.787 C 767.084 530.787 758.744 521.355 758.744 508.295 L 758.744 387.492 C 758.744 374.432 767.084 365 780.144 365 Z M 780.144 607.694 C 764.544 607.694 752.214 595.36 752.214 579.761 C 752.214 564.525 764.544 552.19 780.144 552.19 C 795.744 552.19 808.074 564.525 808.074 579.761 C 808.074 595.36 795.744 607.694 780.144 607.694 Z"
          fill="white"/>
    <path d="M 701.964 423.406 C 715.024 423.406 723.374 432.838 723.374 445.535 L 723.374 525.708 C 723.374 584.84 686.914 607.694 642.654 607.694 C 598.034 607.694 561.574 584.84 561.574 525.708 L 561.574 445.535 C 561.574 432.838 569.924 423.406 582.984 423.406 C 595.674 423.406 604.384 432.838 604.384 445.535 L 604.384 522.806 C 604.384 555.092 617.984 567.789 642.654 567.789 C 666.964 567.789 680.564 555.092 680.564 522.806 L 680.564 445.535 C 680.564 432.838 689.274 423.406 701.964 423.406 Z"
          fill="white"/>
    <path d="M 440.204 472.381 C 440.204 484.352 452.534 488.706 476.114 494.147 C 508.764 502.128 539.964 510.472 539.964 550.74 C 539.964 589.919 510.944 607.695 469.224 607.695 C 434.764 607.695 409.727 595.723 398.119 581.938 C 389.049 571.055 390.138 561.623 398.844 553.279 C 409.727 542.759 419.164 547.112 425.324 552.553 C 435.124 561.623 447.094 571.055 470.314 571.055 C 487.724 571.055 498.604 565.25 498.604 553.642 C 498.604 542.033 486.994 538.043 456.524 529.699 C 426.414 521.355 399.57 513.374 399.57 477.46 C 399.57 437.192 432.214 420.504 468.494 420.504 C 489.174 420.504 512.754 425.946 527.264 441.545 C 533.434 447.712 538.144 456.419 527.264 468.39 C 516.384 479.636 508.404 476.371 500.784 470.567 C 493.894 465.488 481.914 456.782 463.784 456.782 C 451.444 456.782 440.204 460.772 440.204 472.381 Z"
          fill="white"/>
    <path d="M 281.815 607.695 C 229.509 607.695 192 567.661 192 513.797 C 192 459.569 229.509 419.899 281.815 419.899 C 334.122 419.899 371.631 459.569 371.631 513.797 C 371.631 567.661 334.122 607.695 281.815 607.695 Z M 281.815 567.661 C 312.098 567.661 331.025 544.368 331.025 513.797 C 331.025 483.225 312.098 459.569 281.815 459.569 C 251.533 459.569 232.606 483.225 232.606 513.797 C 232.606 544.368 251.533 567.661 281.815 567.661 Z"
          fill="white"/>
    <path d="M 950.004 500 C 950.004 748.528 748.524 950 500.004 950 C 251.472 950 50 748.528 50 500 C 50 251.472 251.472 50 500.004 50 C 748.524 50 950.004 251.472 950.004 500 Z M 95 500 C 95 723.675 276.325 905 500.004 905 C 723.674 905 905.004 723.675 905.004 500 C 905.004 276.325 723.674 95 500.004 95 C 276.325 95 95 276.325 95 500 Z"
          fill="white"/>
</svg>